<?xml version="1.0" encoding="UTF-8" standalone="no"?>
<!-- Created with Inkscape (http://www.inkscape.org/) -->

<svg
   version="1.1"
   width="512"
   height="512"
   viewBox="0 0 512 512"
   id="svg1"
   xml:space="preserve"
   xmlns="http://www.w3.org/2000/svg"
   xmlns:svg="http://www.w3.org/2000/svg"><defs
     id="defs1" /><path
     id="rect1"
     style="fill:#52a435"
     d="M 0,0 H 512 V 512 H 0 Z" /><path
     id="rect6"
     d="M 102.4,102.4 H 204.8 V 110.9 H 102.4 Z"
     style="fill:#2a631b;fill-opacity:1" /><path
     id="rect7"
     d="M 307.20001,102.4 H 409.62501 V 110.9 H 307.20001 Z"
     style="fill:#2a631b;fill-opacity:1" /><path
     id="rect9"
     d="M 102.4,110.9 H 204.8 V 204.8 H 102.4 Z"
     style="fill:#000000" /><path
     id="rect11"
     d="M 307.20001,110.9 H 409.62501 V 204.8 H 307.20001 Z"
     style="fill:#000000" /><path
     id="rect12"
     d="M 102.4,204.8 H 204.8 V 213.3 H 102.4 Z"
     style="fill:#86d562;fill-opacity:1" /><path
     id="rect13"
     d="M 307.19999,204.8 H 409.62498 V 213.3 H 307.19999 Z"
     style="fill:#86d562;fill-opacity:1" /><path
     id="rect14"
     d="M 204.8,204.8 H 307.19999 V 213.3 H 204.8 Z"
     style="fill:#2a631b;fill-opacity:1" /><path
     id="rect15"
     d="M 204.8,213.3 V 264.5 H 153.6 V 409.625 H 204.8 V 358.425 H 307.2 V 409.625 H 358.4 V 264.5 H 307.2 V 213.3 Z"
     fill="#000000" /><path
     id="rect16"
     d="M 204.8,358.425 H 307.19999 V 366.925 H 204.8 Z"
     style="fill:#86d562;fill-opacity:1" /><path
     id="rect17"
     d="M 153.6,256 H 204.8 V 264.5 H 153.6 Z"
     style="fill:#2a631b;fill-opacity:1" /><path
     id="rect19"
     d="M 153.6,409.625 H 204.8 V 418.125 H 153.6 Z"
     style="fill:#86d562;fill-opacity:1" /><path
     id="rect20"
     d="M 307.2,256 H 358.4 V 264.5 H 307.2 Z"
     style="fill:#2a631b;fill-opacity:1" /><path
     id="rect22"
     d="M 307.2,409.625 H 358.4 V 418.125 H 307.2 Z"
     style="fill:#86d562;fill-opacity:1" /></svg>
